<?xml version="1.0" standalone="no"?>
<!DOCTYPE svg PUBLIC "-//W3C//DTD SVG 20010904//EN"
 "http://www.w3.org/TR/2001/REC-SVG-20010904/DTD/svg10.dtd">
<svg version="1.0" xmlns="http://www.w3.org/2000/svg"
 width="260.000000pt" height="260.000000pt" viewBox="0 0 260.000000 260.000000"
 preserveAspectRatio="xMidYMid meet">
<metadata>
Created by potrace 1.14, written by Peter Selinger 2001-2017
</metadata>
<g transform="translate(0.000000,260.000000) scale(0.100000,-0.100000)"
fill="#000000" stroke="none">
<path d="M735 2376 c-116 -41 -134 -50 -170 -90 -22 -24 -53 -52 -69 -62 -15
-10 -36 -36 -46 -58 -10 -23 -32 -58 -49 -80 -51 -64 -77 -207 -67 -376 8
-135 26 -210 60 -251 15 -17 36 -50 48 -73 20 -40 152 -176 171 -176 5 0 57
-21 116 -47 99 -44 112 -46 196 -47 89 -1 90 -1 138 37 42 32 56 37 100 37 34
0 63 -7 84 -20 l33 -20 -6 -297 -5 -298 34 -70 c19 -38 42 -77 52 -85 15 -13
73 -15 349 -18 398 -3 397 -4 440 82 l30 58 1 347 c1 373 -3 414 -50 470 -39
45 -88 52 -347 47 -238 -5 -276 -1 -315 36 -30 28 -29 54 5 120 26 52 27 57
27 223 0 94 -3 186 -8 206 -4 19 -27 66 -52 104 -25 37 -45 74 -45 81 0 8 -34
48 -77 90 -72 73 -82 79 -192 121 -171 66 -218 67 -386 9z"/>
</g>
</svg>
